# xmcd
#
# Track frame offsets: 
#        150
#        25372
#        46707
#        65889
#        92461
#        115434
#        134134
#        155854
#        175261
#        200066
#        220212
#        233321
#        251796
#        268600
#        300538
#        324893
#
# Disc length: 4626 seconds
#
# Revision: 0
# Processed by: cddbd v1.5.2PL0 Copyright (c) Steve Scherf et al.
# Submitted via: ExactAudioCopy v0.95b3
#
DISCID=e9121010
DTITLE=Jimmie Dale Gilmore - 1996-08-16: Fitzgerald's Nightclub, Berwy
DTITLE=n, IL
DYEAR=1996
DGENRE=Live Concert Recording
TTITLE0=Headed For A Fall
TTITLE1=Borderland
TTITLE2=Dallas
TTITLE3=Braver Newer World
TTITLE4=Where Is Love Now
TTITLE5=Midnight Train
TTITLE6=Because Of The Wind
TTITLE7=There She Goes
TTITLE8=We're Gonna Fly Away
TTITLE9=Just A Wave
TTITLE10=She Had Everything
TTITLE11=Long Long Time
TTITLE12=Black Snake Moan
TTITLE13=Dreamers Walk Alone (Mary Cutrufello)
TTITLE14=Outside The Lines
TTITLE15=Sally
EXTD=
EXTT0=
EXTT1=
EXTT2=
EXTT3=
EXTT4=
EXTT5=
EXTT6=
EXTT7=
EXTT8=
EXTT9=
EXTT10=
EXTT11=
EXTT12=
EXTT13=
EXTT14=
EXTT15=
PLAYORDER=
